MutatorSansInstance_400-900.ufo
<glyph name="comma" format="2">
  <advance width="289"/>
  <unicode hex="002C"/>
  <outline>
    <contour>
      <point x="198" y="0" type="line"/>
      <point x="198" y="246" type="line"/>
      <point x="92" y="246" type="line"/>
      <point x="92" y="0" type="line"/>
      <point x="143" y="-11" type="line"/>
      <point x="133" y="12" type="line"/>
      <point x="111" y="-113" type="line"/>
      <point x="147" y="-115" type="line"/>
    </contour>
  </outline>
</glyph>
<glyph name="period" format="2">
  <advance width="288"/>
  <unicode hex="002E"/>
  <outline>
    <contour>
      <point x="91" y="0" type="line"/>
      <point x="197" y="0" type="line"/>
      <point x="197" y="246" type="line"/>
      <point x="91" y="246" type="line"/>
    </contour>
  </outline>
</glyph>
<glyph name="A" format="2">
  <advance width="1166"/>
  <unicode hex="0041"/>
  <outline>
    <contour>
      <point x="41" y="0" type="line"/>
      <point x="197" y="0" type="line"/>
      <point x="591" y="740" type="line"/>
      <point x="457" y="740" type="line"/>
    </contour>
    <contour>
      <point x="222" y="179" type="line"/>
      <point x="897" y="179" type="line"/>
      <point x="897" y="285" type="line"/>
      <point x="222" y="285" type="line"/>
    </contour>
    <contour>
      <point x="916" y="0" type="line"/>
      <point x="1130" y="0" type="line"/>
      <point x="714" y="740" type="line"/>
      <point x="511" y="740" type="line"/>
    </contour>
    <contour>
      <point x="479" y="614" type="line"/>
      <point x="672" y="614" type="line"/>
      <point x="672" y="740" type="line"/>
      <point x="479" y="740" type="line"/>
    </contour>
  </outline>
</glyph>
<glyph name="B" format="2">
  <advance width="1156"/>
  <unicode hex="0042"/>
  <outline>
    <contour>
      <point x="91" y="0" type="line"/>
      <point x="279" y="0" type="line"/>
      <point x="279" y="740" type="line"/>
      <point x="91" y="740" type="line"/>
    </contour>
    <contour>
      <point x="254" y="335" type="line"/>
      <point x="783" y="335" type="line" smooth="yes"/>
      <point x="870" y="335"/>
      <point x="915" y="294"/>
      <point x="915" y="224" type="curve" smooth="yes"/>
      <point x="915" y="157"/>
      <point x="870" y="117"/>
      <point x="783" y="117" type="curve" smooth="yes"/>
      <point x="254" y="117" type="line"/>
      <point x="254" y="0" type="line"/>
      <point x="841" y="0" type="line" smooth="yes"/>
      <point x="1039" y="0"/>
      <point x="1103" y="87"/>
      <point x="1103" y="202" type="curve" smooth="yes"/>
      <point x="1103" y="306"/>
      <point x="1044" y="375"/>
      <point x="933" y="391" type="curve"/>
      <point x="912" y="358" type="line"/>
      <point x="999" y="379"/>
      <point x="1058" y="441"/>
      <point x="1058" y="535" type="curve" smooth="yes"/>
      <point x="1058" y="655"/>
      <point x="987" y="740"/>
      <point x="786" y="740" type="curve" smooth="yes"/>
      <point x="254" y="740" type="line"/>
      <point x="254" y="628" type="line"/>
      <point x="735" y="628" type="line" smooth="yes"/>
      <point x="826" y="628"/>
      <point x="871" y="588"/>
      <point x="871" y="521" type="curve" smooth="yes"/>
      <point x="871" y="449"/>
      <point x="826" y="412"/>
      <point x="735" y="412" type="curve" smooth="yes"/>
      <point x="254" y="412" type="line"/>
    </contour>
  </outline>
</glyph>
<glyph name="C" format="2">
  <advance width="1261"/>
  <unicode hex="0043"/>
  <outline>
    <contour>
      <point x="1010" y="311" type="line"/>
      <point x="982" y="174"/>
      <point x="855" y="117"/>
      <point x="665" y="117" type="curve" smooth="yes"/>
      <point x="604" y="117" type="line" smooth="yes"/>
      <point x="389" y="117"/>
      <point x="254" y="192"/>
      <point x="254" y="372" type="curve" smooth="yes"/>
      <point x="254" y="550"/>
      <point x="389" y="623"/>
      <point x="604" y="623" type="curve" smooth="yes"/>
      <point x="665" y="623" type="line" smooth="yes"/>
      <point x="853" y="623"/>
      <point x="980" y="568"/>
      <point x="1010" y="437" type="curve"/>
      <point x="1199" y="457" type="line"/>
      <point x="1158" y="656"/>
      <point x="967" y="750"/>
      <point x="684" y="750" type="curve" smooth="yes"/>
      <point x="584" y="750" type="line" smooth="yes"/>
      <point x="263" y="750"/>
      <point x="61" y="630"/>
      <point x="61" y="372" type="curve" smooth="yes"/>
      <point x="61" y="113"/>
      <point x="263" y="-10"/>
      <point x="584" y="-10" type="curve" smooth="yes"/>
      <point x="684" y="-10" type="line" smooth="yes"/>
      <point x="969" y="-10"/>
      <point x="1160" y="87"/>
      <point x="1200" y="292" type="curve"/>
    </contour>
  </outline>
</glyph>
<glyph name="D" format="2">
  <advance width="1146"/>
  <unicode hex="0044"/>
  <outline>
    <contour>
      <point x="91" y="0" type="line"/>
      <point x="278" y="0" type="line"/>
      <point x="278" y="740" type="line"/>
      <point x="91" y="740" type="line"/>
    </contour>
    <contour>
      <point x="246" y="617" type="line"/>
      <point x="540" y="617" type="line" smooth="yes"/>
      <point x="756" y="617"/>
      <point x="892" y="550"/>
      <point x="892" y="372" type="curve" smooth="yes"/>
      <point x="892" y="192"/>
      <point x="756" y="123"/>
      <point x="540" y="123" type="curve" smooth="yes"/>
      <point x="246" y="123" type="line"/>
      <point x="246" y="0" type="line"/>
      <point x="559" y="0" type="line" smooth="yes"/>
      <point x="881" y="0"/>
      <point x="1084" y="113"/>
      <point x="1084" y="372" type="curve" smooth="yes"/>
      <point x="1084" y="630"/>
      <point x="881" y="740"/>
      <point x="559" y="740" type="curve" smooth="yes"/>
      <point x="246" y="740" type="line"/>
    </contour>
  </outline>
</glyph>
<glyph name="E" format="2">
  <advance width="1076"/>
  <unicode hex="0045"/>
  <anchor x="522" y="784" name="top"/>
  <outline>
    <contour>
      <point x="92" y="0" type="line"/>
      <point x="278" y="0" type="line"/>
      <point x="278" y="740" type="line"/>
      <point x="92" y="740" type="line"/>
    </contour>
    <contour>
      <point x="140" y="610" type="line"/>
      <point x="986" y="610" type="line"/>
      <point x="986" y="740" type="line"/>
      <point x="140" y="740" type="line"/>
    </contour>
    <contour>
      <point x="140" y="0" type="line"/>
      <point x="986" y="0" type="line"/>
      <point x="986" y="130" type="line"/>
      <point x="140" y="130" type="line"/>
    </contour>
    <contour>
      <point x="140" y="326" type="line"/>
      <point x="842" y="326" type="line"/>
      <point x="842" y="416" type="line"/>
      <point x="140" y="416" type="line"/>
    </contour>
  </outline>
</glyph>
<glyph name="F" format="2">
  <advance width="1103"/>
  <unicode hex="0046"/>
  <outline>
    <contour>
      <point x="91" y="0" type="line"/>
      <point x="279" y="0" type="line"/>
      <point x="279" y="740" type="line"/>
      <point x="91" y="740" type="line"/>
    </contour>
    <contour>
      <point x="140" y="611" type="line"/>
      <point x="1012" y="611" type="line"/>
      <point x="1012" y="740" type="line"/>
      <point x="140" y="740" type="line"/>
    </contour>
    <contour>
      <point x="140" y="273" type="line"/>
      <point x="958" y="273" type="line"/>
      <point x="958" y="386" type="line"/>
      <point x="140" y="386" type="line"/>
    </contour>
  </outline>
</glyph>
<glyph name="G" format="2">
  <advance width="1312"/>
  <unicode hex="0047"/>
  <outline>
    <contour>
      <point x="516" y="306" type="line"/>
      <point x="1038" y="306" type="line"/>
      <point x="1038" y="216" type="line"/>
      <point x="1124" y="0" type="line"/>
      <point x="1228" y="0" type="line"/>
      <point x="1228" y="366" type="line"/>
      <point x="516" y="366" type="line"/>
    </contour>
    <contour>
      <point x="1038" y="316" type="line"/>
      <point x="1010" y="178"/>
      <point x="882" y="117"/>
      <point x="692" y="117" type="curve" smooth="yes"/>
      <point x="604" y="117" type="line" smooth="yes"/>
      <point x="389" y="117"/>
      <point x="254" y="192"/>
      <point x="254" y="372" type="curve" smooth="yes"/>
      <point x="254" y="550"/>
      <point x="390" y="623"/>
      <point x="605" y="623" type="curve" smooth="yes"/>
      <point x="693" y="623" type="line" smooth="yes"/>
      <point x="881" y="623"/>
      <point x="1008" y="568"/>
      <point x="1037" y="437" type="curve"/>
      <point x="1225" y="457" type="line"/>
      <point x="1185" y="656"/>
      <point x="995" y="750"/>
      <point x="712" y="750" type="curve" smooth="yes"/>
      <point x="584" y="750" type="line" smooth="yes"/>
      <point x="263" y="750"/>
      <point x="61" y="630"/>
      <point x="61" y="372" type="curve" smooth="yes"/>
      <point x="61" y="113"/>
      <point x="263" y="-10"/>
      <point x="584" y="-10" type="curve" smooth="yes"/>
      <point x="647" y="-10" type="line" smooth="yes"/>
      <point x="931" y="-10"/>
      <point x="1116" y="91"/>
      <point x="1155" y="297" type="curve"/>
    </contour>
  </outline>
</glyph>
<glyph name="H" format="2">
  <advance width="1163"/>
  <unicode hex="0048"/>
  <outline>
    <contour>
      <point x="91" y="0" type="line"/>
      <point x="279" y="0" type="line"/>
      <point x="279" y="740" type="line"/>
      <point x="91" y="740" type="line"/>
    </contour>
    <contour>
      <point x="170" y="308" type="line"/>
      <point x="996" y="308" type="line"/>
      <point x="996" y="434" type="line"/>
      <point x="170" y="434" type="line"/>
    </contour>
    <contour>
      <point x="884" y="0" type="line"/>
      <point x="1072" y="0" type="line"/>
      <point x="1072" y="740" type="line"/>
      <point x="884" y="740" type="line"/>
    </contour>
  </outline>
</glyph>
<glyph name="I" format="2">
  <advance width="911"/>
  <unicode hex="0049"/>
  <outline>
    <contour>
      <point x="364" y="0" type="line"/>
      <point x="552" y="0" type="line"/>
      <point x="552" y="740" type="line"/>
      <point x="364" y="740" type="line"/>
    </contour>
    <contour>
      <point x="91" y="610" type="line"/>
      <point x="820" y="610" type="line"/>
      <point x="820" y="740" type="line"/>
      <point x="91" y="740" type="line"/>
    </contour>
    <contour>
      <point x="91" y="0" type="line"/>
      <point x="820" y="0" type="line"/>
      <point x="820" y="130" type="line"/>
      <point x="91" y="130" type="line"/>
    </contour>
  </outline>
</glyph>
<glyph name="J" format="2">
  <advance width="842"/>
  <unicode hex="004A"/>
  <outline>
    <contour>
      <point x="251" y="-10" type="curve" smooth="yes"/>
      <point x="558" y="-10"/>
      <point x="751" y="114"/>
      <point x="751" y="373" type="curve" smooth="yes"/>
      <point x="751" y="740" type="line"/>
      <point x="559" y="740" type="line"/>
      <point x="559" y="386" type="line" smooth="yes"/>
      <point x="559" y="205"/>
      <point x="440" y="129"/>
      <point x="250" y="129" type="curve" smooth="yes"/>
      <point x="210" y="129"/>
      <point x="162" y="133"/>
      <point x="116" y="142" type="curve"/>
      <point x="91" y="4" type="line"/>
      <point x="140" y="-6"/>
      <point x="194" y="-10"/>
    </contour>
  </outline>
</glyph>
<glyph name="K" format="2">
  <advance width="1082"/>
  <unicode hex="004B"/>
  <outline>
    <contour>
      <point x="91" y="0" type="line"/>
      <point x="279" y="0" type="line"/>
      <point x="279" y="740" type="line"/>
      <point x="91" y="740" type="line"/>
    </contour>
    <contour>
      <point x="206" y="304" type="line"/>
      <point x="320" y="304" type="line"/>
      <point x="772" y="0" type="line"/>
      <point x="1029" y="0" type="line"/>
      <point x="467" y="411" type="line"/>
      <point x="330" y="380" type="line"/>
      <point x="206" y="380" type="line"/>
    </contour>
    <contour>
      <point x="298" y="361" type="line"/>
      <point x="407" y="311" type="line"/>
      <point x="1024" y="740" type="line"/>
      <point x="799" y="740" type="line"/>
    </contour>
  </outline>
</glyph>
<glyph name="L" format="2">
  <advance width="953"/>
  <unicode hex="004C"/>
  <outline>
    <contour>
      <point x="91" y="0" type="line"/>
      <point x="279" y="0" type="line"/>
      <point x="279" y="740" type="line"/>
      <point x="91" y="740" type="line"/>
    </contour>
    <contour>
      <point x="140" y="0" type="line"/>
      <point x="922" y="0" type="line"/>
      <point x="922" y="132" type="line"/>
      <point x="140" y="132" type="line"/>
    </contour>
  </outline>
</glyph>
<glyph name="M" format="2">
  <advance width="1218"/>
  <unicode hex="004D"/>
  <outline>
    <contour>
      <point x="91" y="0" type="line"/>
      <point x="240" y="0" type="line"/>
      <point x="240" y="740" type="line"/>
      <point x="91" y="740" type="line"/>
    </contour>
    <contour>
      <point x="1127" y="0" type="line"/>
      <point x="1127" y="740" type="line"/>
      <point x="978" y="740" type="line"/>
      <point x="978" y="0" type="line"/>
    </contour>
    <contour>
      <point x="1036" y="560" type="line"/>
      <point x="978" y="740" type="line"/>
      <point x="586" y="380" type="line"/>
      <point x="632" y="380" type="line"/>
      <point x="240" y="740" type="line"/>
      <point x="182" y="560" type="line"/>
      <point x="574" y="201" type="line"/>
      <point x="644" y="201" type="line"/>
    </contour>
  </outline>
</glyph>
<glyph name="N" format="2">
  <advance width="1175"/>
  <unicode hex="004E"/>
  <outline>
    <contour>
      <point x="91" y="0" type="line"/>
      <point x="240" y="0" type="line"/>
      <point x="240" y="740" type="line"/>
      <point x="91" y="740" type="line"/>
    </contour>
    <contour>
      <point x="181" y="582" type="line"/>
      <point x="935" y="0" type="line"/>
      <point x="995" y="159" type="line"/>
      <point x="240" y="740" type="line"/>
    </contour>
    <contour>
      <point x="935" y="0" type="line"/>
      <point x="1084" y="0" type="line"/>
      <point x="1084" y="740" type="line"/>
      <point x="935" y="740" type="line"/>
    </contour>
  </outline>
</glyph>
<glyph name="O" format="2">
  <advance width="1274"/>
  <unicode hex="004F"/>
  <outline>
    <contour>
      <point x="584" y="-10" type="curve" smooth="yes"/>
      <point x="690" y="-10" type="line" smooth="yes"/>
      <point x="1011" y="-10"/>
      <point x="1213" y="113"/>
      <point x="1213" y="372" type="curve" smooth="yes"/>
      <point x="1213" y="630"/>
      <point x="1011" y="750"/>
      <point x="690" y="750" type="curve" smooth="yes"/>
      <point x="584" y="750" type="line" smooth="yes"/>
      <point x="263" y="750"/>
      <point x="61" y="630"/>
      <point x="61" y="372" type="curve" smooth="yes"/>
      <point x="61" y="113"/>
      <point x="263" y="-10"/>
    </contour>
    <contour>
      <point x="604" y="117" type="line" smooth="yes"/>
      <point x="389" y="117"/>
      <point x="254" y="192"/>
      <point x="254" y="372" type="curve" smooth="yes"/>
      <point x="254" y="550"/>
      <point x="389" y="623"/>
      <point x="604" y="623" type="curve" smooth="yes"/>
      <point x="671" y="623" type="line" smooth="yes"/>
      <point x="886" y="623"/>
      <point x="1021" y="550"/>
      <point x="1021" y="372" type="curve" smooth="yes"/>
      <point x="1021" y="192"/>
      <point x="886" y="117"/>
      <point x="671" y="117" type="curve" smooth="yes"/>
    </contour>
  </outline>
</glyph>
<glyph name="P" format="2">
  <advance width="1085"/>
  <unicode hex="0050"/>
  <outline>
    <contour>
      <point x="91" y="0" type="line"/>
      <point x="279" y="0" type="line"/>
      <point x="279" y="740" type="line"/>
      <point x="91" y="740" type="line"/>
    </contour>
    <contour>
      <point x="203" y="603" type="line"/>
      <point x="625" y="603" type="line" smooth="yes"/>
      <point x="821" y="603"/>
      <point x="882" y="546"/>
      <point x="882" y="442" type="curve" smooth="yes"/>
      <point x="882" y="336"/>
      <point x="821" y="282"/>
      <point x="625" y="282" type="curve" smooth="yes"/>
      <point x="203" y="282" type="line"/>
      <point x="203" y="144" type="line"/>
      <point x="608" y="144" type="line" smooth="yes"/>
      <point x="965" y="144"/>
      <point x="1054" y="262"/>
      <point x="1054" y="442" type="curve" smooth="yes"/>
      <point x="1054" y="623"/>
      <point x="965" y="740"/>
      <point x="609" y="740" type="curve" smooth="yes"/>
      <point x="203" y="740" type="line"/>
    </contour>
  </outline>
</glyph>
<glyph name="Q" format="2">
  <advance width="1274"/>
  <unicode hex="0051"/>
  <outline>
    <contour>
      <point x="620" y="-130" type="line"/>
      <point x="810" y="-130" type="line"/>
      <point x="696" y="76" type="line"/>
      <point x="514" y="65" type="line"/>
    </contour>
    <component base="O"/>
  </outline>
</glyph>
<glyph name="R" format="2">
  <advance width="1118"/>
  <unicode hex="0052"/>
  <outline>
    <contour>
      <point x="834" y="0" type="line"/>
      <point x="1042" y="0" type="line"/>
      <point x="944" y="99" type="line" smooth="yes"/>
      <point x="879" y="163"/>
      <point x="831" y="200"/>
      <point x="771" y="199" type="curve"/>
      <point x="647" y="199" type="line"/>
    </contour>
    <contour>
      <point x="91" y="0" type="line"/>
      <point x="279" y="0" type="line"/>
      <point x="279" y="740" type="line"/>
      <point x="91" y="740" type="line"/>
    </contour>
    <contour>
      <point x="203" y="603" type="line"/>
      <point x="631" y="603" type="line" smooth="yes"/>
      <point x="821" y="603"/>
      <point x="880" y="546"/>
      <point x="880" y="442" type="curve" smooth="yes"/>
      <point x="880" y="336"/>
      <point x="821" y="282"/>
      <point x="631" y="282" type="curve" smooth="yes"/>
      <point x="203" y="282" type="line"/>
      <point x="203" y="168" type="line"/>
      <point x="609" y="168" type="line" smooth="yes"/>
      <point x="965" y="168"/>
      <point x="1054" y="282"/>
      <point x="1054" y="454" type="curve" smooth="yes"/>
      <point x="1054" y="627"/>
      <point x="965" y="740"/>
      <point x="609" y="740" type="curve" smooth="yes"/>
      <point x="203" y="740" type="line"/>
    </contour>
  </outline>
</glyph>
<glyph name="S" format="2">
  <advance width="1134"/>
  <unicode hex="0053"/>
  <outline>
    <contour>
      <point x="1061" y="214" type="curve" smooth="yes"/>
      <point x="1060" y="370"/>
      <point x="965" y="422"/>
      <point x="673" y="435" type="curve" smooth="yes"/>
      <point x="500" y="442" type="line" smooth="yes"/>
      <point x="331" y="450"/>
      <point x="251" y="469"/>
      <point x="251" y="534" type="curve" smooth="yes"/>
      <point x="251" y="594"/>
      <point x="324" y="630"/>
      <point x="507" y="630" type="curve" smooth="yes"/>
      <point x="600" y="630" type="line" smooth="yes"/>
      <point x="773" y="630"/>
      <point x="905" y="603"/>
      <point x="1004" y="568" type="curve"/>
      <point x="1031" y="681" type="line"/>
      <point x="928" y="719"/>
      <point x="769" y="749"/>
      <point x="620" y="749" type="curve" smooth="yes"/>
      <point x="556" y="749" type="line" smooth="yes"/>
      <point x="229" y="749"/>
      <point x="90" y="676"/>
      <point x="90" y="524" type="curve" smooth="yes"/>
      <point x="91" y="382"/>
      <point x="199" y="325"/>
      <point x="478" y="313" type="curve" smooth="yes"/>
      <point x="646" y="305" type="line" smooth="yes"/>
      <point x="821" y="296"/>
      <point x="896" y="283"/>
      <point x="896" y="213" type="curve" smooth="yes"/>
      <point x="896" y="146"/>
      <point x="818" y="110"/>
      <point x="601" y="110" type="curve" smooth="yes"/>
      <point x="513" y="110" type="line" smooth="yes"/>
      <point x="348" y="110"/>
      <point x="209" y="137"/>
      <point x="101" y="173" type="curve"/>
      <point x="77" y="59" type="line"/>
      <point x="190" y="20"/>
      <point x="355" y="-9"/>
      <point x="494" y="-9" type="curve" smooth="yes"/>
      <point x="564" y="-9" type="line" smooth="yes"/>
      <point x="930" y="-9"/>
      <point x="1061" y="76"/>
    </contour>
  </outline>
</glyph>
<glyph name="T" format="2">
  <advance width="1120"/>
  <unicode hex="0054"/>
  <outline>
    <contour>
      <point x="466" y="0" type="line"/>
      <point x="654" y="0" type="line"/>
      <point x="654" y="740" type="line"/>
      <point x="466" y="740" type="line"/>
    </contour>
    <contour>
      <point x="31" y="597" type="line"/>
      <point x="1089" y="597" type="line"/>
      <point x="1089" y="740" type="line"/>
      <point x="31" y="740" type="line"/>
    </contour>
  </outline>
</glyph>
<glyph name="U" format="2">
  <advance width="1173"/>
  <unicode hex="0055"/>
  <outline>
    <contour>
      <point x="586" y="-10" type="curve" smooth="yes"/>
      <point x="886" y="-10"/>
      <point x="1071" y="113"/>
      <point x="1071" y="371" type="curve" smooth="yes"/>
      <point x="1071" y="740" type="line"/>
      <point x="880" y="740" type="line"/>
      <point x="880" y="369" type="line" smooth="yes"/>
      <point x="880" y="199"/>
      <point x="766" y="128"/>
      <point x="587" y="128" type="curve" smooth="yes"/>
      <point x="407" y="128"/>
      <point x="294" y="199"/>
      <point x="294" y="369" type="curve" smooth="yes"/>
      <point x="294" y="740" type="line"/>
      <point x="102" y="740" type="line"/>
      <point x="102" y="371" type="line" smooth="yes"/>
      <point x="102" y="113"/>
      <point x="287" y="-10"/>
    </contour>
  </outline>
</glyph>
<glyph name="V" format="2">
  <advance width="1161"/>
  <unicode hex="0056"/>
  <outline>
    <contour>
      <point x="1130" y="740" type="line"/>
      <point x="974" y="740" type="line"/>
      <point x="573" y="0" type="line"/>
      <point x="710" y="0" type="line"/>
    </contour>
    <contour>
      <point x="245" y="740" type="line"/>
      <point x="30" y="740" type="line"/>
      <point x="451" y="0" type="line"/>
      <point x="654" y="0" type="line"/>
    </contour>
    <contour>
      <point x="690" y="126" type="line"/>
      <point x="491" y="126" type="line"/>
      <point x="491" y="0" type="line"/>
      <point x="690" y="0" type="line"/>
    </contour>
  </outline>
</glyph>
<glyph name="W" format="2">
  <advance width="1298"/>
  <unicode hex="0057"/>
  <outline>
    <contour>
      <point x="1266" y="740" type="line"/>
      <point x="1095" y="740" type="line"/>
      <point x="900" y="145" type="line"/>
      <point x="918" y="145" type="line"/>
      <point x="718" y="740" type="line"/>
      <point x="594" y="740" type="line"/>
      <point x="405" y="140" type="line"/>
      <point x="425" y="140" type="line"/>
      <point x="224" y="740" type="line"/>
      <point x="31" y="740" type="line"/>
      <point x="277" y="0" type="line"/>
      <point x="460" y="0" type="line"/>
      <point x="651" y="578" type="line"/>
      <point x="617" y="577" type="line"/>
      <point x="826" y="0" type="line"/>
      <point x="1026" y="0" type="line"/>
    </contour>
  </outline>
</glyph>
<glyph name="X" format="2">
  <advance width="1066"/>
  <unicode hex="0058"/>
  <outline>
    <contour>
      <point x="809" y="0" type="line"/>
      <point x="1035" y="0" type="line"/>
      <point x="605" y="412" type="line"/>
      <point x="263" y="740" type="line"/>
      <point x="36" y="740" type="line"/>
      <point x="450" y="358" type="line"/>
    </contour>
    <contour>
      <point x="31" y="-1" type="line"/>
      <point x="231" y="0" type="line"/>
      <point x="543" y="338" type="line"/>
      <point x="605" y="338" type="line"/>
      <point x="1029" y="740" type="line"/>
      <point x="829" y="740" type="line"/>
      <point x="512" y="415" type="line"/>
      <point x="447" y="414" type="line"/>
    </contour>
  </outline>
</glyph>
<glyph name="Y" format="2">
  <advance width="1025"/>
  <unicode hex="0059"/>
  <outline>
    <contour>
      <point x="1000" y="740" type="line"/>
      <point x="835" y="740" type="line"/>
      <point x="485" y="204" type="line"/>
      <point x="602" y="189" type="line"/>
    </contour>
    <contour>
      <point x="224" y="740" type="line"/>
      <point x="25" y="740" type="line"/>
      <point x="422" y="189" type="line"/>
      <point x="588" y="204" type="line"/>
    </contour>
    <contour>
      <point x="606" y="277" type="line"/>
      <point x="418" y="277" type="line"/>
      <point x="418" y="0" type="line"/>
      <point x="606" y="0" type="line"/>
    </contour>
  </outline>
</glyph>
<glyph name="Z" format="2">
  <advance width="1161"/>
  <unicode hex="005A"/>
  <outline>
    <contour>
      <point x="91" y="132" type="line"/>
      <point x="313" y="84" type="line"/>
      <point x="1070" y="608" type="line"/>
      <point x="847" y="656" type="line"/>
    </contour>
    <contour>
      <point x="91" y="608" type="line"/>
      <point x="1070" y="608" type="line"/>
      <point x="1070" y="740" type="line"/>
      <point x="91" y="740" type="line"/>
    </contour>
    <contour>
      <point x="91" y="0" type="line"/>
      <point x="1070" y="0" type="line"/>
      <point x="1070" y="132" type="line"/>
      <point x="91" y="132" type="line"/>
    </contour>
  </outline>
</glyph>
